<?xml version="1.0" encoding="UTF-8" standalone="no"?>
<!-- Generator: Adobe Illustrator 19.0.0, SVG Export Plug-In . SVG Version: 6.00 Build 0)  -->

<svg
   version="1.1"
   id="Capa_1"
   x="0px"
   y="0px"
   viewBox="0 0 834.5 215.89999"
   xml:space="preserve"
   sodipodi:docname="logofull.svg"
   width="834.5"
   height="215.89999"
   inkscape:version="1.1.2 (0a00cf5339, 2022-02-04)"
   xmlns:inkscape="http://www.inkscape.org/namespaces/inkscape"
   xmlns:sodipodi="http://sodipodi.sourceforge.net/DTD/sodipodi-0.dtd"
   xmlns:xlink="http://www.w3.org/1999/xlink"
   xmlns="http://www.w3.org/2000/svg"
   xmlns:svg="http://www.w3.org/2000/svg"><defs
   id="defs37" /><sodipodi:namedview
   id="namedview35"
   pagecolor="#ffffff"
   bordercolor="#666666"
   borderopacity="1.0"
   inkscape:pageshadow="2"
   inkscape:pageopacity="0.0"
   inkscape:pagecheckerboard="0"
   showgrid="false"
   fit-margin-top="0"
   fit-margin-left="0"
   fit-margin-right="0"
   fit-margin-bottom="0"
   inkscape:zoom="0.45466667"
   inkscape:cx="-189.14956"
   inkscape:cy="-393.69501"
   inkscape:window-width="1920"
   inkscape:window-height="1031"
   inkscape:window-x="0"
   inkscape:window-y="0"
   inkscape:window-maximized="1"
   inkscape:current-layer="Capa_1" />
<style
   type="text/css"
   id="style2">
	.st0{fill:#707070;}
	.st1{clip-path:url(#SVGID_2_);fill:#707070;}
	.st2{clip-path:url(#SVGID_2_);fill:#444444;}
	.st3{clip-path:url(#SVGID_2_);fill:#3B790B;}
</style>
<polygon
   class="st0"
   points="377.7,873.6 347.8,873.6 347.8,800.4 338.6,800.4 338.6,777.1 377.7,742.5 377.7,777.1 400.5,777.1 400.5,800.4 377.7,800.4 "
   id="polygon4"
   transform="translate(-338.6,-659.3)" />
<g
   id="g32"
   transform="translate(-338.6,-659.3)">
	<defs
   id="defs7"><rect
     id="SVGID_1_"
     width="1500"
     height="1500"
     x="0"
     y="0" /></defs>
	<clipPath
   id="SVGID_2_">
		<use
   xlink:href="#SVGID_1_"
   style="overflow:visible"
   id="use9"
   x="0"
   y="0"
   width="100%"
   height="100%" />
	</clipPath>
	<path
   class="st1"
   d="m 515.4,825.5 c 0,8.4 -1.5,15.6 -4.6,21.8 -3.1,6.2 -7.2,11.3 -12.4,15.4 -5.1,4.1 -11,7.2 -17.5,9.3 -6.5,2.1 -13.2,3.1 -20.2,3.1 -6.8,0 -13.5,-1 -20.1,-3.1 -6.6,-2.1 -12.4,-5.1 -17.5,-9.3 -5.1,-4.1 -9.2,-9.3 -12.3,-15.4 -3.1,-6.2 -4.6,-13.4 -4.6,-21.8 0,-8.4 1.5,-15.7 4.6,-21.9 3.1,-6.2 7.2,-11.5 12.3,-15.6 5.1,-4.2 10.9,-7.3 17.5,-9.4 6.6,-2.1 13.3,-3.1 20.1,-3.1 6.9,0 13.7,1 20.2,3.1 6.5,2.1 12.3,5.2 17.5,9.4 5.1,4.2 9.3,9.4 12.4,15.6 3,6.2 4.6,13.5 4.6,21.9 m -37.1,19.1 c 2.6,-2.6 4.4,-5.5 5.5,-8.8 1.1,-3.3 1.6,-6.7 1.6,-10.3 0,-3.7 -0.5,-7.3 -1.6,-10.6 -1.1,-3.3 -2.9,-6.3 -5.5,-8.9 -2.6,-2.6 -5.5,-4.4 -8.7,-5.6 -3.2,-1.2 -6.2,-1.7 -8.9,-1.7 -2.6,0 -5.5,0.6 -8.7,1.7 -3.2,1.2 -6.1,3 -8.7,5.6 -2.6,2.6 -4.4,5.5 -5.5,8.9 -1.1,3.3 -1.6,6.9 -1.6,10.6 0,3.6 0.5,7 1.6,10.2 1.1,3.2 2.9,6.1 5.5,8.7 2.6,2.6 5.5,4.5 8.7,5.7 3.2,1.2 6.1,1.8 8.7,1.8 2.7,0 5.7,-0.6 8.9,-1.7 3.2,-1.2 6.1,-3 8.7,-5.6"
   clip-path="url(#SVGID_2_)"
   id="path12" />
	<path
   class="st1"
   d="m 523.1,825.1 c 0,-7.3 1.2,-14.1 3.5,-20.2 2.3,-6.1 5.6,-11.3 9.8,-15.6 4.2,-4.3 9.4,-7.7 15.4,-10.1 6,-2.4 12.7,-3.7 20.1,-3.7 5.9,0 11.3,0.9 16.1,2.7 4.8,1.8 9.1,4.3 12.8,7.5 v -47.5 h 29.9 v 135.3 h -29.9 v -10.2 c -3.7,3.6 -8,6.5 -12.9,8.6 -4.9,2.1 -10.2,3.2 -16,3.2 -7.3,0 -14,-1.2 -20.1,-3.7 -6,-2.4 -11.2,-5.9 -15.4,-10.2 -4.2,-4.4 -7.5,-9.6 -9.8,-15.7 -2.4,-6.1 -3.5,-12.9 -3.5,-20.4 m 37,-19.1 c -2.6,2.6 -4.4,5.5 -5.5,8.8 -1.1,3.3 -1.6,6.7 -1.6,10.3 0,3.7 0.5,7.3 1.6,10.6 1.1,3.3 2.9,6.3 5.5,8.9 2.6,2.6 5.2,4.5 7.9,5.9 2.7,1.3 5.9,2 9.6,2 3.6,0 7.1,-0.7 10.4,-2 3.3,-1.4 6.3,-3.3 8.9,-5.9 1.7,-1.7 3,-3.4 3.9,-5.2 v -28 c -0.9,-1.8 -2.2,-3.5 -3.9,-5.2 -5.4,-5.4 -11.8,-8.1 -19.3,-8.1 -3.7,0 -6.9,0.7 -9.6,2 -2.7,1.4 -5.3,3.3 -7.9,5.9"
   clip-path="url(#SVGID_2_)"
   id="path14" />
	<path
   class="st2"
   d="m 882.2,770.1 c -2.1,0 -4,-0.4 -5.9,-1.2 -1.9,-0.8 -3.5,-1.8 -4.8,-3.2 -1.4,-1.3 -2.4,-2.9 -3.2,-4.7 -0.8,-1.8 -1.2,-3.7 -1.2,-5.8 0,-4.1 1.5,-7.7 4.4,-10.6 3,-3 6.5,-4.4 10.6,-4.4 4.1,0 7.6,1.5 10.5,4.4 2.9,3 4.3,6.5 4.3,10.6 0,4.1 -1.4,7.6 -4.3,10.5 -2.7,3 -6.2,4.4 -10.4,4.4 m -15,7.1 h 29.9 v 96.3 h -29.9 z"
   clip-path="url(#SVGID_2_)"
   id="path16" />
	<path
   class="st2"
   d="m 950.2,775.5 c 6.4,0 12.7,1.1 18.8,3.3 6.1,2.2 11,5 14.8,8.5 L 967.5,807 c -1,-0.8 -2.3,-1.5 -3.7,-2.3 -1.4,-0.8 -2.9,-1.5 -4.5,-2.2 -1.6,-0.7 -3.2,-1.3 -4.8,-1.6 -1.6,-0.4 -3.1,-0.6 -4.3,-0.6 -3.2,0 -5.4,0.5 -6.6,1.4 -1.2,0.9 -1.7,1.9 -1.7,2.9 0,1 0.9,2 2.6,3 1.7,1 3.9,2 6.5,3 l 11.8,5 c 4.6,1.9 8.4,4.1 11.3,6.4 2.9,2.3 5.1,4.8 6.8,7.4 1.6,2.6 2.7,5.4 3.2,8.4 0.5,3 0.8,6 0.8,9.3 0,5 -1.1,9.3 -3.3,12.9 -2.2,3.6 -5,6.5 -8.4,8.8 -3.4,2.3 -7.3,3.9 -11.6,4.9 -4.3,1 -8.6,1.5 -12.8,1.5 -8.4,0 -15.9,-1.4 -22.5,-4.1 -6.6,-2.8 -11.8,-5.9 -15.5,-9.4 l 12.7,-20.5 c 0.9,0.8 2.3,1.6 4.1,2.4 1.8,0.8 3.9,1.6 6.3,2.3 2.4,0.7 4.9,1.3 7.4,1.8 2.6,0.5 5.1,0.8 7.5,0.8 1,0 1.9,-0.2 2.7,-0.6 0.6,-0.3 1.3,-0.6 1.9,-1.2 0.6,-0.5 1,-1.3 1,-2.3 0,-1.3 -0.5,-2.3 -1.5,-3 -1,-0.7 -3,-1.7 -6,-3 l -11.8,-5 c -7.7,-3.3 -13.4,-7.4 -17,-12.2 -3.6,-4.8 -5.4,-10.4 -5.4,-16.8 0,-5.5 1.1,-10.2 3.4,-13.9 2.3,-3.7 5.2,-6.7 8.8,-8.9 3.6,-2.2 7.6,-3.8 12.1,-4.7 4.2,-0.9 8.7,-1.4 13.2,-1.4"
   clip-path="url(#SVGID_2_)"
   id="path18" />
	<polygon
   class="st2"
   points="1035.5,873.6 1005.6,873.6 1005.6,800.4 996.3,800.4 996.3,777.1 1035.5,742.5 1035.5,777.1 1058.2,777.1 1058.2,800.4 1035.5,800.4 "
   clip-path="url(#SVGID_2_)"
   id="polygon20" />
	<path
   class="st2"
   d="m 1173.1,825.5 c 0,8.4 -1.5,15.6 -4.6,21.8 -3.1,6.2 -7.2,11.3 -12.4,15.4 -5.1,4.1 -11,7.2 -17.5,9.3 -6.5,2.1 -13.2,3.1 -20.2,3.1 -6.8,0 -13.5,-1 -20.1,-3.1 -6.6,-2.1 -12.4,-5.1 -17.5,-9.3 -5.1,-4.1 -9.2,-9.3 -12.3,-15.4 -3.1,-6.2 -4.6,-13.4 -4.6,-21.8 0,-8.4 1.5,-15.7 4.6,-21.9 3.1,-6.2 7.2,-11.5 12.3,-15.6 5.1,-4.2 10.9,-7.3 17.5,-9.4 6.6,-2.1 13.3,-3.1 20.1,-3.1 6.9,0 13.7,1 20.2,3.1 6.5,2.1 12.3,5.2 17.5,9.4 5.1,4.2 9.3,9.4 12.4,15.6 3,6.2 4.6,13.5 4.6,21.9 m -37.1,19.1 c 2.6,-2.6 4.4,-5.5 5.5,-8.8 1.1,-3.3 1.6,-6.7 1.6,-10.3 0,-3.7 -0.5,-7.3 -1.6,-10.6 -1.1,-3.3 -2.9,-6.3 -5.5,-8.9 -2.6,-2.6 -5.5,-4.4 -8.7,-5.6 -3.2,-1.2 -6.2,-1.7 -8.9,-1.7 -2.6,0 -5.5,0.6 -8.7,1.7 -3.2,1.2 -6.1,3 -8.7,5.6 -2.6,2.6 -4.4,5.5 -5.5,8.9 -1.1,3.3 -1.6,6.9 -1.6,10.6 0,3.6 0.5,7 1.6,10.2 1.1,3.2 2.9,6.1 5.5,8.7 2.6,2.6 5.5,4.5 8.7,5.7 3.2,1.2 6.1,1.8 8.7,1.8 2.7,0 5.7,-0.6 8.9,-1.7 3.3,-1.2 6.2,-3 8.7,-5.6"
   clip-path="url(#SVGID_2_)"
   id="path22" />
	<path
   class="st1"
   d="m 721.1,829.4 c -0.2,2.2 -0.6,4.4 -1.3,6.4 -1.1,3.3 -2.9,6.2 -5.5,8.8 -2.6,2.6 -5.5,4.4 -8.7,5.6 -3.2,1.2 -6.2,1.7 -8.9,1.7 -2.6,0 -5.5,-0.6 -8.7,-1.8 -3.2,-1.2 -6.1,-3.1 -8.7,-5.7 -2.6,-2.6 -4.4,-5.5 -5.5,-8.7 -1.1,-3.2 -1.6,-6.6 -1.6,-10.2 0,-3.7 0.5,-7.3 1.6,-10.6 1.1,-3.3 2.9,-6.3 5.5,-8.9 2.6,-2.6 5.5,-4.4 8.7,-5.6 3.2,-1.2 6.1,-1.7 8.7,-1.7 0.4,0 0.8,0.1 1.1,0.1 l -16.3,-21.5 c -1.6,0.4 -3.3,0.8 -4.9,1.3 -6.6,2.1 -12.4,5.2 -17.5,9.4 -5.1,4.2 -9.2,9.4 -12.3,15.6 -3.1,6.2 -4.6,13.5 -4.6,21.9 0,8.4 1.5,15.6 4.6,21.8 3.1,6.2 7.2,11.3 12.3,15.4 5.1,4.1 10.9,7.2 17.5,9.3 6.6,2.1 13.3,3.1 20.1,3.1 6.9,0 13.7,-1 20.2,-3.1 6.5,-2.1 12.3,-5.1 17.5,-9.3 2.5,-2 4.7,-4.4 6.8,-6.9 z"
   clip-path="url(#SVGID_2_)"
   id="path24" />
	<polygon
   class="st3"
   points="765.1,873.8 680.2,761.9 757.6,817.7 924.2,659.3 "
   clip-path="url(#SVGID_2_)"
   id="polygon26" />
	<polygon
   class="st2"
   points="853.7,842.7 798.4,842.7 775.5,873.6 853.7,873.6 "
   clip-path="url(#SVGID_2_)"
   id="polygon28" />
	<polygon
   class="st2"
   points="764.9,741 764.9,799.5 796.7,769.2 796.7,741 "
   clip-path="url(#SVGID_2_)"
   id="polygon30" />
</g>
</svg>
